<?xml version="1.0" encoding="UTF-8"?>
<svg xmlns="http://www.w3.org/2000/svg" xmlns:xlink="http://www.w3.org/1999/xlink" width="30px" height="30px" viewBox="0 0 30 30" version="1.1">
<g id="surface1">
<path style=" stroke:none;fill-rule:nonzero;fill:rgb(0%,0%,0%);fill-opacity:1;" d="M 14.0625 28.125 L 1.875 28.125 L 1.875 1.875 L 14.0625 1.875 C 14.578125 1.875 15 1.453125 15 0.9375 C 15 0.421875 14.578125 0 14.0625 0 L 0.9375 0 C 0.421875 0 0 0.421875 0 0.9375 L 0 29.0625 C 0 29.578125 0.421875 30 0.9375 30 L 14.0625 30 C 14.578125 30 15 29.578125 15 29.0625 C 15 28.546875 14.578125 28.125 14.0625 28.125 Z M 14.0625 28.125 "/>
<path style=" stroke:none;fill-rule:nonzero;fill:rgb(0%,0%,0%);fill-opacity:1;" d="M 29.726562 14.34375 L 23.257812 7.785156 C 22.894531 7.414062 22.300781 7.414062 21.933594 7.785156 C 21.566406 8.152344 21.566406 8.753906 21.933594 9.121094 L 26.808594 14.066406 L 7.503906 14.066406 C 6.984375 14.066406 6.566406 14.492188 6.566406 15.015625 C 6.566406 15.539062 6.984375 15.960938 7.503906 15.960938 L 26.808594 15.960938 L 21.933594 20.90625 C 21.566406 21.277344 21.566406 21.875 21.933594 22.246094 C 22.300781 22.617188 22.894531 22.617188 23.257812 22.246094 L 29.726562 15.683594 C 30.089844 15.320312 30.09375 14.710938 29.726562 14.34375 Z M 29.726562 14.34375 "/>
</g>
</svg>
